<svg xmlns="http://www.w3.org/2000/svg" width="106.01" height="136" viewBox="0 0 106.01 136"><title>footer-logo</title><path d="M36.27,8.59H29.13V.06H44.8V39.2L41.62,40A44.48,44.48,0,1,0,97.3,87.37H53V78.8h52.84c.11,1.41.17,2.83.17,4.27A53,53,0,1,1,36.27,32.78Zm25-8.53V39.2l3.18.84A44.57,44.57,0,0,1,95.68,70.36h8.83A53.13,53.13,0,0,0,69.8,32.78V8.59H77V.06Z" transform="translate(-0.03 -0.06)" fill="#fff" fill-rule="evenodd"/><path d="M90,93.44a38.35,38.35,0,0,1-73.87-.19c13.3-2.59,24.28.08,37,3.25C71.33,101.07,89.9,93.46,90,93.44Z" transform="translate(-0.03 -0.06)" fill="#3772ff" fill-rule="evenodd"/><path d="M28.24,84.1a6.35,6.35,0,1,0-6.35-6.35A6.35,6.35,0,0,0,28.24,84.1Z" transform="translate(-0.03 -0.06)" fill="#3772ff" fill-rule="evenodd"/><path d="M45.84,68.58a3.76,3.76,0,1,0-3.74-3.76v0A3.76,3.76,0,0,0,45.84,68.58Z" transform="translate(-0.03 -0.06)" fill="#3772ff" fill-rule="evenodd"/><path d="M32.14,60.67a2.4,2.4,0,1,0-2.44-2.41,2.41,2.41,0,0,0,2.41,2.41Z" transform="translate(-0.03 -0.06)" fill="#3772ff" fill-rule="evenodd"/></svg>