<svg xmlns="http://www.w3.org/2000/svg" width="324.08" height="135.54" viewBox="0 0 324.08 135.54"><title>logo-white</title><path d="M36.12,8.5H29V0H44.62V39l-3.17.84A44.33,44.33,0,1,0,96.94,87H52.82V78.46h52.66c.11,1.41.17,2.82.17,4.26A52.82,52.82,0,1,1,36.12,32.6V8.5ZM61,0V39l3.17.84A44.41,44.41,0,0,1,95.32,70.05h8.8A52.94,52.94,0,0,0,69.53,32.6V8.5H76.7V0H61Z" fill="#fff" fill-rule="evenodd"/><path d="M89.61,93.05A38.21,38.21,0,0,1,16,92.86c13.25-2.58,24.2.08,36.83,3.24C71.06,100.66,89.56,93.07,89.61,93.05Z" fill="#3772ff" fill-rule="evenodd"/><path d="M28.12,83.75a6.33,6.33,0,1,0-6.33-6.33A6.34,6.34,0,0,0,28.12,83.75Z" fill="#3772ff" fill-rule="evenodd"/><path d="M45.66,68.28a3.74,3.74,0,1,0-3.73-3.73A3.74,3.74,0,0,0,45.66,68.28Z" fill="#3772ff" fill-rule="evenodd"/><path d="M32,60.4A2.39,2.39,0,1,0,29.57,58,2.4,2.4,0,0,0,32,60.4Z" fill="#3772ff" fill-rule="evenodd"/><path d="M131.41,41l18.82,26.79L169,41H181L156.37,75.52l23.81,33.6h-11.9L150.23,83.3l-18,25.82h-12L144,75.52,119.41,41Z" fill="#fff"/><path d="M187.38,39h10.56V94.8q0,3.86,1.15,4.91a4.08,4.08,0,0,0,2.88,1.06,16.5,16.5,0,0,0,3.6-.38,15.49,15.49,0,0,0,2.93-1l1.54,8.35a31.29,31.29,0,0,1-5.48,1.63,27.44,27.44,0,0,1-5.66.67c-3.59,0-6.4-1-8.45-3s-3.07-4.83-3.07-8.42Z" fill="#fff"/><path d="M238.93,110.08a26.66,26.66,0,0,1-10.61-2,25.3,25.3,0,0,1-13.53-13.82,27,27,0,0,1,1.39-22.73,25.36,25.36,0,0,1,9.12-9.4A25.93,25.93,0,0,1,239,58.53a24.61,24.61,0,0,1,22.46,12.93,25.61,25.61,0,0,1,3.17,12.45,20.5,20.5,0,0,1-.1,2.14c-.06.67-.13,1.22-.19,1.67H224.15a15.34,15.34,0,0,0,8,12.74,14.67,14.67,0,0,0,7.19,1.85,16.32,16.32,0,0,0,8-2.11,11,11,0,0,0,5.14-5.57l9,2.59a19.37,19.37,0,0,1-4.94,6.58,24.54,24.54,0,0,1-7.83,4.6A27.84,27.84,0,0,1,238.93,110.08ZM223.86,80.71h30.33a15,15,0,0,0-2.44-7.48,15.6,15.6,0,0,0-5.48-5.09,15.45,15.45,0,0,0-14.59,0,15.26,15.26,0,0,0-7.82,12.57Z" fill="#fff"/><path d="M300.37,110.08A20.2,20.2,0,0,1,282.61,100v9.12H273.3V39h10.56V68.9a23,23,0,0,1,7.44-7.58,19.41,19.41,0,0,1,10.51-2.79,19.93,19.93,0,0,1,9.12,2.09A21.68,21.68,0,0,1,318,66.33a26.75,26.75,0,0,1,4.51,8.28,30.64,30.64,0,0,1,1.58,9.89,27.41,27.41,0,0,1-1.78,9.89,24.85,24.85,0,0,1-5,8.18,24.11,24.11,0,0,1-7.53,5.52A21.86,21.86,0,0,1,300.37,110.08Zm-2.78-9a14.59,14.59,0,0,0,6.33-1.37,16.37,16.37,0,0,0,5-3.65,15.46,15.46,0,0,0,3.22-5.3,18.19,18.19,0,0,0,1.1-6.24,18.89,18.89,0,0,0-1.87-8.33,16,16,0,0,0-5.23-6.25,13.21,13.21,0,0,0-7.78-2.36,12.56,12.56,0,0,0-6,1.46,17.56,17.56,0,0,0-4.94,3.88,23.46,23.46,0,0,0-3.6,5.35V91.31a10.21,10.21,0,0,0,2,3.93,15.18,15.18,0,0,0,3.36,3,17.81,17.81,0,0,0,4.13,2A12.88,12.88,0,0,0,297.59,101.06Z" fill="#fff"/></svg>